<?xml version="1.0" encoding="utf-8" standalone="no"?>
<!DOCTYPE svg PUBLIC "-//W3C//DTD SVG 1.1//EN"
  "http://www.w3.org/Graphics/SVG/1.1/DTD/svg11.dtd">
<svg xmlns:xlink="http://www.w3.org/1999/xlink" width="460.8pt" height="345.6pt" viewBox="0 0 460.8 345.6" xmlns="http://www.w3.org/2000/svg" version="1.1">
 <metadata>
  <rdf:RDF xmlns:dc="http://purl.org/dc/elements/1.1/" xmlns:cc="http://creativecommons.org/ns#" xmlns:rdf="http://www.w3.org/1999/02/22-rdf-syntax-ns#">
   <cc:Work>
    <dc:type rdf:resource="http://purl.org/dc/dcmitype/StillImage"/>
    <dc:date>2024-02-16T12:10:48.879946</dc:date>
    <dc:format>image/svg+xml</dc:format>
    <dc:creator>
     <cc:Agent>
      <dc:title>Matplotlib v3.8.2, https://matplotlib.org/</dc:title>
     </cc:Agent>
    </dc:creator>
   </cc:Work>
  </rdf:RDF>
 </metadata>
 <defs>
  <style type="text/css">*{stroke-linejoin: round; stroke-linecap: butt}</style>
 </defs>
 <g id="figure_1">
  <g id="patch_1">
   <path d="M 0 345.6 
L 460.8 345.6 
L 460.8 0 
L 0 0 
z
" style="fill: #ffffff"/>
  </g>
  <g id="axes_1">
   <g id="patch_2">
    <path d="M 57.6 307.584 
L 414.72 307.584 
L 414.72 41.472 
L 57.6 41.472 
z
" style="fill: #ffffff"/>
   </g>
   <g id="matplotlib.axis_1">
    <g id="xtick_1">
     <g id="line2d_1">
      <defs>
       <path id="m0b63ff416d" d="M 0 0 
L 0 3.5 
" style="stroke: #000000; stroke-width: 0.8"/>
      </defs>
      <g>
       <use xlink:href="#m0b63ff416d" x="91.524015" y="307.584" style="stroke: #000000; stroke-width: 0.8"/>
      </g>
     </g>
     <g id="text_1">
      <!-- 0 -->
      <g transform="translate(88.342765 322.182437) scale(0.1 -0.1)">
       <defs>
        <path id="DejaVuSans-30" d="M 2034 4250 
Q 1547 4250 1301 3770 
Q 1056 3291 1056 2328 
Q 1056 1369 1301 889 
Q 1547 409 2034 409 
Q 2525 409 2770 889 
Q 3016 1369 3016 2328 
Q 3016 3291 2770 3770 
Q 2525 4250 2034 4250 
z
M 2034 4750 
Q 2819 4750 3233 4129 
Q 3647 3509 3647 2328 
Q 3647 1150 3233 529 
Q 2819 -91 2034 -91 
Q 1250 -91 836 529 
Q 422 1150 422 2328 
Q 422 3509 836 4129 
Q 1250 4750 2034 4750 
z
" transform="scale(0.015625)"/>
       </defs>
       <use xlink:href="#DejaVuSans-30"/>
      </g>
     </g>
    </g>
    <g id="xtick_2">
     <g id="line2d_2">
      <g>
       <use xlink:href="#m0b63ff416d" x="149.196286" y="307.584" style="stroke: #000000; stroke-width: 0.8"/>
      </g>
     </g>
     <g id="text_2">
      <!-- 5 -->
      <g transform="translate(146.015036 322.182437) scale(0.1 -0.1)">
       <defs>
        <path id="DejaVuSans-35" d="M 691 4666 
L 3169 4666 
L 3169 4134 
L 1269 4134 
L 1269 2991 
Q 1406 3038 1543 3061 
Q 1681 3084 1819 3084 
Q 2600 3084 3056 2656 
Q 3513 2228 3513 1497 
Q 3513 744 3044 326 
Q 2575 -91 1722 -91 
Q 1428 -91 1123 -41 
Q 819 9 494 109 
L 494 744 
Q 775 591 1075 516 
Q 1375 441 1709 441 
Q 2250 441 2565 725 
Q 2881 1009 2881 1497 
Q 2881 1984 2565 2268 
Q 2250 2553 1709 2553 
Q 1456 2553 1204 2497 
Q 953 2441 691 2322 
L 691 4666 
z
" transform="scale(0.015625)"/>
       </defs>
       <use xlink:href="#DejaVuSans-35"/>
      </g>
     </g>
    </g>
    <g id="xtick_3">
     <g id="line2d_3">
      <g>
       <use xlink:href="#m0b63ff416d" x="206.868557" y="307.584" style="stroke: #000000; stroke-width: 0.8"/>
      </g>
     </g>
     <g id="text_3">
      <!-- 10 -->
      <g transform="translate(200.506057 322.182437) scale(0.1 -0.1)">
       <defs>
        <path id="DejaVuSans-31" d="M 794 531 
L 1825 531 
L 1825 4091 
L 703 3866 
L 703 4441 
L 1819 4666 
L 2450 4666 
L 2450 531 
L 3481 531 
L 3481 0 
L 794 0 
L 794 531 
z
" transform="scale(0.015625)"/>
       </defs>
       <use xlink:href="#DejaVuSans-31"/>
       <use xlink:href="#DejaVuSans-30" x="63.623047"/>
      </g>
     </g>
    </g>
    <g id="xtick_4">
     <g id="line2d_4">
      <g>
       <use xlink:href="#m0b63ff416d" x="264.540828" y="307.584" style="stroke: #000000; stroke-width: 0.8"/>
      </g>
     </g>
     <g id="text_4">
      <!-- 15 -->
      <g transform="translate(258.178328 322.182437) scale(0.1 -0.1)">
       <use xlink:href="#DejaVuSans-31"/>
       <use xlink:href="#DejaVuSans-35" x="63.623047"/>
      </g>
     </g>
    </g>
    <g id="xtick_5">
     <g id="line2d_5">
      <g>
       <use xlink:href="#m0b63ff416d" x="322.213099" y="307.584" style="stroke: #000000; stroke-width: 0.8"/>
      </g>
     </g>
     <g id="text_5">
      <!-- 20 -->
      <g transform="translate(315.850599 322.182437) scale(0.1 -0.1)">
       <defs>
        <path id="DejaVuSans-32" d="M 1228 531 
L 3431 531 
L 3431 0 
L 469 0 
L 469 531 
Q 828 903 1448 1529 
Q 2069 2156 2228 2338 
Q 2531 2678 2651 2914 
Q 2772 3150 2772 3378 
Q 2772 3750 2511 3984 
Q 2250 4219 1831 4219 
Q 1534 4219 1204 4116 
Q 875 4013 500 3803 
L 500 4441 
Q 881 4594 1212 4672 
Q 1544 4750 1819 4750 
Q 2544 4750 2975 4387 
Q 3406 4025 3406 3419 
Q 3406 3131 3298 2873 
Q 3191 2616 2906 2266 
Q 2828 2175 2409 1742 
Q 1991 1309 1228 531 
z
" transform="scale(0.015625)"/>
       </defs>
       <use xlink:href="#DejaVuSans-32"/>
       <use xlink:href="#DejaVuSans-30" x="63.623047"/>
      </g>
     </g>
    </g>
    <g id="xtick_6">
     <g id="line2d_6">
      <g>
       <use xlink:href="#m0b63ff416d" x="379.88537" y="307.584" style="stroke: #000000; stroke-width: 0.8"/>
      </g>
     </g>
     <g id="text_6">
      <!-- 25 -->
      <g transform="translate(373.52287 322.182437) scale(0.1 -0.1)">
       <use xlink:href="#DejaVuSans-32"/>
       <use xlink:href="#DejaVuSans-35" x="63.623047"/>
      </g>
     </g>
    </g>
   </g>
   <g id="matplotlib.axis_2">
    <g id="ytick_1">
     <g id="line2d_7">
      <defs>
       <path id="mf7dfc82add" d="M 0 0 
L -3.5 0 
" style="stroke: #000000; stroke-width: 0.8"/>
      </defs>
      <g>
       <use xlink:href="#mf7dfc82add" x="57.6" y="53.264462" style="stroke: #000000; stroke-width: 0.8"/>
      </g>
     </g>
     <g id="text_7">
      <!-- 0 -->
      <g transform="translate(44.2375 57.06368) scale(0.1 -0.1)">
       <use xlink:href="#DejaVuSans-30"/>
      </g>
     </g>
    </g>
    <g id="ytick_2">
     <g id="line2d_8">
      <g>
       <use xlink:href="#mf7dfc82add" x="57.6" y="110.936733" style="stroke: #000000; stroke-width: 0.8"/>
      </g>
     </g>
     <g id="text_8">
      <!-- 5 -->
      <g transform="translate(44.2375 114.735951) scale(0.1 -0.1)">
       <use xlink:href="#DejaVuSans-35"/>
      </g>
     </g>
    </g>
    <g id="ytick_3">
     <g id="line2d_9">
      <g>
       <use xlink:href="#mf7dfc82add" x="57.6" y="168.609004" style="stroke: #000000; stroke-width: 0.8"/>
      </g>
     </g>
     <g id="text_9">
      <!-- 10 -->
      <g transform="translate(37.875 172.408223) scale(0.1 -0.1)">
       <use xlink:href="#DejaVuSans-31"/>
       <use xlink:href="#DejaVuSans-30" x="63.623047"/>
      </g>
     </g>
    </g>
    <g id="ytick_4">
     <g id="line2d_10">
      <g>
       <use xlink:href="#mf7dfc82add" x="57.6" y="226.281275" style="stroke: #000000; stroke-width: 0.8"/>
      </g>
     </g>
     <g id="text_10">
      <!-- 15 -->
      <g transform="translate(37.875 230.080494) scale(0.1 -0.1)">
       <use xlink:href="#DejaVuSans-31"/>
       <use xlink:href="#DejaVuSans-35" x="63.623047"/>
      </g>
     </g>
    </g>
    <g id="ytick_5">
     <g id="line2d_11">
      <g>
       <use xlink:href="#mf7dfc82add" x="57.6" y="283.953546" style="stroke: #000000; stroke-width: 0.8"/>
      </g>
     </g>
     <g id="text_11">
      <!-- 20 -->
      <g transform="translate(37.875 287.752765) scale(0.1 -0.1)">
       <use xlink:href="#DejaVuSans-32"/>
       <use xlink:href="#DejaVuSans-30" x="63.623047"/>
      </g>
     </g>
    </g>
   </g>
   <g id="line2d_12">
    <path d="M 160.73074 76.33337 
L 160.73074 87.867824 
L 160.73074 99.402279 
L 160.73074 110.936733 
L 160.73074 122.471187 
L 160.73074 134.005641 
L 160.73074 145.540095 
L 160.73074 157.07455 
L 160.73074 168.609004 
L 160.73074 180.143458 
L 160.73074 191.677912 
L 160.73074 203.212366 
L 160.73074 214.746821 
L 160.73074 226.281275 
L 160.73074 237.815729 
L 160.73074 249.350183 
L 160.73074 260.884637 
L 160.73074 272.419092 
L 160.73074 283.953546 
L 160.73074 295.488 
L 172.265194 295.488 
L 183.799649 295.488 
L 195.334103 295.488 
L 206.868557 295.488 
L 218.403011 295.488 
L 229.937465 295.488 
L 241.47192 295.488 
L 253.006374 295.488 
L 264.540828 295.488 
L 276.075282 295.488 
L 287.609737 295.488 
L 299.144191 295.488 
L 310.678645 295.488 
L 322.213099 295.488 
L 333.747553 295.488 
L 345.282008 295.488 
L 356.816462 295.488 
L 368.350916 295.488 
L 379.88537 295.488 
L 379.88537 283.953546 
L 379.88537 272.419092 
L 379.88537 260.884637 
L 379.88537 249.350183 
L 379.88537 237.815729 
L 379.88537 226.281275 
L 379.88537 214.746821 
L 379.88537 203.212366 
L 379.88537 191.677912 
L 379.88537 180.143458 
L 379.88537 168.609004 
L 379.88537 157.07455 
L 379.88537 145.540095 
L 379.88537 134.005641 
L 379.88537 122.471187 
L 379.88537 110.936733 
L 379.88537 99.402279 
L 379.88537 87.867824 
L 379.88537 76.33337 
L 368.350916 76.33337 
L 356.816462 76.33337 
L 345.282008 76.33337 
L 333.747553 76.33337 
L 322.213099 76.33337 
L 310.678645 76.33337 
L 299.144191 76.33337 
L 287.609737 76.33337 
L 276.075282 76.33337 
L 264.540828 76.33337 
L 253.006374 76.33337 
L 241.47192 76.33337 
L 229.937465 76.33337 
L 218.403011 76.33337 
L 206.868557 76.33337 
L 195.334103 76.33337 
L 183.799649 76.33337 
L 172.265194 76.33337 
" clip-path="url(#pc3e87e1317)" style="fill: none; stroke: #ff0000; stroke-width: 1.5; stroke-linecap: square"/>
    <defs>
     <path id="mb367aa03e7" d="M 0 3 
C 0.795609 3 1.55874 2.683901 2.12132 2.12132 
C 2.683901 1.55874 3 0.795609 3 0 
C 3 -0.795609 2.683901 -1.55874 2.12132 -2.12132 
C 1.55874 -2.683901 0.795609 -3 0 -3 
C -0.795609 -3 -1.55874 -2.683901 -2.12132 -2.12132 
C -2.683901 -1.55874 -3 -0.795609 -3 0 
C -3 0.795609 -2.683901 1.55874 -2.12132 2.12132 
C -1.55874 2.683901 -0.795609 3 0 3 
z
" style="stroke: #ff0000"/>
    </defs>
    <g clip-path="url(#pc3e87e1317)">
     <use xlink:href="#mb367aa03e7" x="160.73074" y="76.33337" style="fill: #ff0000; stroke: #ff0000"/>
     <use xlink:href="#mb367aa03e7" x="160.73074" y="87.867824" style="fill: #ff0000; stroke: #ff0000"/>
     <use xlink:href="#mb367aa03e7" x="160.73074" y="99.402279" style="fill: #ff0000; stroke: #ff0000"/>
     <use xlink:href="#mb367aa03e7" x="160.73074" y="110.936733" style="fill: #ff0000; stroke: #ff0000"/>
     <use xlink:href="#mb367aa03e7" x="160.73074" y="122.471187" style="fill: #ff0000; stroke: #ff0000"/>
     <use xlink:href="#mb367aa03e7" x="160.73074" y="134.005641" style="fill: #ff0000; stroke: #ff0000"/>
     <use xlink:href="#mb367aa03e7" x="160.73074" y="145.540095" style="fill: #ff0000; stroke: #ff0000"/>
     <use xlink:href="#mb367aa03e7" x="160.73074" y="157.07455" style="fill: #ff0000; stroke: #ff0000"/>
     <use xlink:href="#mb367aa03e7" x="160.73074" y="168.609004" style="fill: #ff0000; stroke: #ff0000"/>
     <use xlink:href="#mb367aa03e7" x="160.73074" y="180.143458" style="fill: #ff0000; stroke: #ff0000"/>
     <use xlink:href="#mb367aa03e7" x="160.73074" y="191.677912" style="fill: #ff0000; stroke: #ff0000"/>
     <use xlink:href="#mb367aa03e7" x="160.73074" y="203.212366" style="fill: #ff0000; stroke: #ff0000"/>
     <use xlink:href="#mb367aa03e7" x="160.73074" y="214.746821" style="fill: #ff0000; stroke: #ff0000"/>
     <use xlink:href="#mb367aa03e7" x="160.73074" y="226.281275" style="fill: #ff0000; stroke: #ff0000"/>
     <use xlink:href="#mb367aa03e7" x="160.73074" y="237.815729" style="fill: #ff0000; stroke: #ff0000"/>
     <use xlink:href="#mb367aa03e7" x="160.73074" y="249.350183" style="fill: #ff0000; stroke: #ff0000"/>
     <use xlink:href="#mb367aa03e7" x="160.73074" y="260.884637" style="fill: #ff0000; stroke: #ff0000"/>
     <use xlink:href="#mb367aa03e7" x="160.73074" y="272.419092" style="fill: #ff0000; stroke: #ff0000"/>
     <use xlink:href="#mb367aa03e7" x="160.73074" y="283.953546" style="fill: #ff0000; stroke: #ff0000"/>
     <use xlink:href="#mb367aa03e7" x="160.73074" y="295.488" style="fill: #ff0000; stroke: #ff0000"/>
     <use xlink:href="#mb367aa03e7" x="172.265194" y="295.488" style="fill: #ff0000; stroke: #ff0000"/>
     <use xlink:href="#mb367aa03e7" x="183.799649" y="295.488" style="fill: #ff0000; stroke: #ff0000"/>
     <use xlink:href="#mb367aa03e7" x="195.334103" y="295.488" style="fill: #ff0000; stroke: #ff0000"/>
     <use xlink:href="#mb367aa03e7" x="206.868557" y="295.488" style="fill: #ff0000; stroke: #ff0000"/>
     <use xlink:href="#mb367aa03e7" x="218.403011" y="295.488" style="fill: #ff0000; stroke: #ff0000"/>
     <use xlink:href="#mb367aa03e7" x="229.937465" y="295.488" style="fill: #ff0000; stroke: #ff0000"/>
     <use xlink:href="#mb367aa03e7" x="241.47192" y="295.488" style="fill: #ff0000; stroke: #ff0000"/>
     <use xlink:href="#mb367aa03e7" x="253.006374" y="295.488" style="fill: #ff0000; stroke: #ff0000"/>
     <use xlink:href="#mb367aa03e7" x="264.540828" y="295.488" style="fill: #ff0000; stroke: #ff0000"/>
     <use xlink:href="#mb367aa03e7" x="276.075282" y="295.488" style="fill: #ff0000; stroke: #ff0000"/>
     <use xlink:href="#mb367aa03e7" x="287.609737" y="295.488" style="fill: #ff0000; stroke: #ff0000"/>
     <use xlink:href="#mb367aa03e7" x="299.144191" y="295.488" style="fill: #ff0000; stroke: #ff0000"/>
     <use xlink:href="#mb367aa03e7" x="310.678645" y="295.488" style="fill: #ff0000; stroke: #ff0000"/>
     <use xlink:href="#mb367aa03e7" x="322.213099" y="295.488" style="fill: #ff0000; stroke: #ff0000"/>
     <use xlink:href="#mb367aa03e7" x="333.747553" y="295.488" style="fill: #ff0000; stroke: #ff0000"/>
     <use xlink:href="#mb367aa03e7" x="345.282008" y="295.488" style="fill: #ff0000; stroke: #ff0000"/>
     <use xlink:href="#mb367aa03e7" x="356.816462" y="295.488" style="fill: #ff0000; stroke: #ff0000"/>
     <use xlink:href="#mb367aa03e7" x="368.350916" y="295.488" style="fill: #ff0000; stroke: #ff0000"/>
     <use xlink:href="#mb367aa03e7" x="379.88537" y="295.488" style="fill: #ff0000; stroke: #ff0000"/>
     <use xlink:href="#mb367aa03e7" x="379.88537" y="283.953546" style="fill: #ff0000; stroke: #ff0000"/>
     <use xlink:href="#mb367aa03e7" x="379.88537" y="272.419092" style="fill: #ff0000; stroke: #ff0000"/>
     <use xlink:href="#mb367aa03e7" x="379.88537" y="260.884637" style="fill: #ff0000; stroke: #ff0000"/>
     <use xlink:href="#mb367aa03e7" x="379.88537" y="249.350183" style="fill: #ff0000; stroke: #ff0000"/>
     <use xlink:href="#mb367aa03e7" x="379.88537" y="237.815729" style="fill: #ff0000; stroke: #ff0000"/>
     <use xlink:href="#mb367aa03e7" x="379.88537" y="226.281275" style="fill: #ff0000; stroke: #ff0000"/>
     <use xlink:href="#mb367aa03e7" x="379.88537" y="214.746821" style="fill: #ff0000; stroke: #ff0000"/>
     <use xlink:href="#mb367aa03e7" x="379.88537" y="203.212366" style="fill: #ff0000; stroke: #ff0000"/>
     <use xlink:href="#mb367aa03e7" x="379.88537" y="191.677912" style="fill: #ff0000; stroke: #ff0000"/>
     <use xlink:href="#mb367aa03e7" x="379.88537" y="180.143458" style="fill: #ff0000; stroke: #ff0000"/>
     <use xlink:href="#mb367aa03e7" x="379.88537" y="168.609004" style="fill: #ff0000; stroke: #ff0000"/>
     <use xlink:href="#mb367aa03e7" x="379.88537" y="157.07455" style="fill: #ff0000; stroke: #ff0000"/>
     <use xlink:href="#mb367aa03e7" x="379.88537" y="145.540095" style="fill: #ff0000; stroke: #ff0000"/>
     <use xlink:href="#mb367aa03e7" x="379.88537" y="134.005641" style="fill: #ff0000; stroke: #ff0000"/>
     <use xlink:href="#mb367aa03e7" x="379.88537" y="122.471187" style="fill: #ff0000; stroke: #ff0000"/>
     <use xlink:href="#mb367aa03e7" x="379.88537" y="110.936733" style="fill: #ff0000; stroke: #ff0000"/>
     <use xlink:href="#mb367aa03e7" x="379.88537" y="99.402279" style="fill: #ff0000; stroke: #ff0000"/>
     <use xlink:href="#mb367aa03e7" x="379.88537" y="87.867824" style="fill: #ff0000; stroke: #ff0000"/>
     <use xlink:href="#mb367aa03e7" x="379.88537" y="76.33337" style="fill: #ff0000; stroke: #ff0000"/>
     <use xlink:href="#mb367aa03e7" x="368.350916" y="76.33337" style="fill: #ff0000; stroke: #ff0000"/>
     <use xlink:href="#mb367aa03e7" x="356.816462" y="76.33337" style="fill: #ff0000; stroke: #ff0000"/>
     <use xlink:href="#mb367aa03e7" x="345.282008" y="76.33337" style="fill: #ff0000; stroke: #ff0000"/>
     <use xlink:href="#mb367aa03e7" x="333.747553" y="76.33337" style="fill: #ff0000; stroke: #ff0000"/>
     <use xlink:href="#mb367aa03e7" x="322.213099" y="76.33337" style="fill: #ff0000; stroke: #ff0000"/>
     <use xlink:href="#mb367aa03e7" x="310.678645" y="76.33337" style="fill: #ff0000; stroke: #ff0000"/>
     <use xlink:href="#mb367aa03e7" x="299.144191" y="76.33337" style="fill: #ff0000; stroke: #ff0000"/>
     <use xlink:href="#mb367aa03e7" x="287.609737" y="76.33337" style="fill: #ff0000; stroke: #ff0000"/>
     <use xlink:href="#mb367aa03e7" x="276.075282" y="76.33337" style="fill: #ff0000; stroke: #ff0000"/>
     <use xlink:href="#mb367aa03e7" x="264.540828" y="76.33337" style="fill: #ff0000; stroke: #ff0000"/>
     <use xlink:href="#mb367aa03e7" x="253.006374" y="76.33337" style="fill: #ff0000; stroke: #ff0000"/>
     <use xlink:href="#mb367aa03e7" x="241.47192" y="76.33337" style="fill: #ff0000; stroke: #ff0000"/>
     <use xlink:href="#mb367aa03e7" x="229.937465" y="76.33337" style="fill: #ff0000; stroke: #ff0000"/>
     <use xlink:href="#mb367aa03e7" x="218.403011" y="76.33337" style="fill: #ff0000; stroke: #ff0000"/>
     <use xlink:href="#mb367aa03e7" x="206.868557" y="76.33337" style="fill: #ff0000; stroke: #ff0000"/>
     <use xlink:href="#mb367aa03e7" x="195.334103" y="76.33337" style="fill: #ff0000; stroke: #ff0000"/>
     <use xlink:href="#mb367aa03e7" x="183.799649" y="76.33337" style="fill: #ff0000; stroke: #ff0000"/>
     <use xlink:href="#mb367aa03e7" x="172.265194" y="76.33337" style="fill: #ff0000; stroke: #ff0000"/>
    </g>
   </g>
   <g id="line2d_13">
    <path d="M 92.43463 53.568 
L 92.43463 53.719769 
L 92.43463 53.871538 
L 92.43463 54.023307 
L 92.43463 54.175077 
L 92.43463 54.326846 
L 92.43463 54.478615 
L 92.43463 54.630384 
L 92.43463 54.782153 
L 92.43463 54.933922 
L 92.43463 55.085691 
L 92.43463 55.23746 
L 92.43463 55.38923 
L 92.43463 55.540999 
L 92.43463 55.692768 
L 92.43463 55.844537 
L 92.43463 55.996306 
L 92.43463 56.148075 
L 92.43463 56.299844 
L 92.43463 56.451614 
L 92.586399 56.451614 
L 92.738168 56.451614 
L 92.889937 56.451614 
L 93.041706 56.451614 
L 93.193476 56.451614 
L 93.345245 56.451614 
L 93.497014 56.451614 
L 93.648783 56.451614 
L 93.800552 56.451614 
L 93.952321 56.451614 
L 94.10409 56.451614 
L 94.255859 56.451614 
L 94.407629 56.451614 
L 94.559398 56.451614 
L 94.711167 56.451614 
L 94.862936 56.451614 
L 95.014705 56.451614 
L 95.166474 56.451614 
L 95.318243 56.451614 
L 95.318243 56.299844 
L 95.318243 56.148075 
L 95.318243 55.996306 
L 95.318243 55.844537 
L 95.318243 55.692768 
L 95.318243 55.540999 
L 95.318243 55.38923 
L 95.318243 55.23746 
L 95.318243 55.085691 
L 95.318243 54.933922 
L 95.318243 54.782153 
L 95.318243 54.630384 
L 95.318243 54.478615 
L 95.318243 54.326846 
L 95.318243 54.175077 
L 95.318243 54.023307 
L 95.318243 53.871538 
L 95.318243 53.719769 
L 95.318243 53.568 
L 95.166474 53.568 
L 95.014705 53.568 
L 94.862936 53.568 
L 94.711167 53.568 
L 94.559398 53.568 
L 94.407629 53.568 
L 94.255859 53.568 
L 94.10409 53.568 
L 93.952321 53.568 
L 93.800552 53.568 
L 93.648783 53.568 
L 93.497014 53.568 
L 93.345245 53.568 
L 93.193476 53.568 
L 93.041706 53.568 
L 92.889937 53.568 
L 92.738168 53.568 
L 92.586399 53.568 
" clip-path="url(#pc3e87e1317)" style="fill: none; stroke: #0000ff; stroke-width: 1.5; stroke-linecap: square"/>
    <defs>
     <path id="mc90a8a1f3b" d="M -3 3 
L 3 -3 
M -3 -3 
L 3 3 
" style="stroke: #0000ff"/>
    </defs>
    <g clip-path="url(#pc3e87e1317)">
     <use xlink:href="#mc90a8a1f3b" x="92.43463" y="53.568" style="fill: #0000ff; stroke: #0000ff"/>
     <use xlink:href="#mc90a8a1f3b" x="92.43463" y="53.719769" style="fill: #0000ff; stroke: #0000ff"/>
     <use xlink:href="#mc90a8a1f3b" x="92.43463" y="53.871538" style="fill: #0000ff; stroke: #0000ff"/>
     <use xlink:href="#mc90a8a1f3b" x="92.43463" y="54.023307" style="fill: #0000ff; stroke: #0000ff"/>
     <use xlink:href="#mc90a8a1f3b" x="92.43463" y="54.175077" style="fill: #0000ff; stroke: #0000ff"/>
     <use xlink:href="#mc90a8a1f3b" x="92.43463" y="54.326846" style="fill: #0000ff; stroke: #0000ff"/>
     <use xlink:href="#mc90a8a1f3b" x="92.43463" y="54.478615" style="fill: #0000ff; stroke: #0000ff"/>
     <use xlink:href="#mc90a8a1f3b" x="92.43463" y="54.630384" style="fill: #0000ff; stroke: #0000ff"/>
     <use xlink:href="#mc90a8a1f3b" x="92.43463" y="54.782153" style="fill: #0000ff; stroke: #0000ff"/>
     <use xlink:href="#mc90a8a1f3b" x="92.43463" y="54.933922" style="fill: #0000ff; stroke: #0000ff"/>
     <use xlink:href="#mc90a8a1f3b" x="92.43463" y="55.085691" style="fill: #0000ff; stroke: #0000ff"/>
     <use xlink:href="#mc90a8a1f3b" x="92.43463" y="55.23746" style="fill: #0000ff; stroke: #0000ff"/>
     <use xlink:href="#mc90a8a1f3b" x="92.43463" y="55.38923" style="fill: #0000ff; stroke: #0000ff"/>
     <use xlink:href="#mc90a8a1f3b" x="92.43463" y="55.540999" style="fill: #0000ff; stroke: #0000ff"/>
     <use xlink:href="#mc90a8a1f3b" x="92.43463" y="55.692768" style="fill: #0000ff; stroke: #0000ff"/>
     <use xlink:href="#mc90a8a1f3b" x="92.43463" y="55.844537" style="fill: #0000ff; stroke: #0000ff"/>
     <use xlink:href="#mc90a8a1f3b" x="92.43463" y="55.996306" style="fill: #0000ff; stroke: #0000ff"/>
     <use xlink:href="#mc90a8a1f3b" x="92.43463" y="56.148075" style="fill: #0000ff; stroke: #0000ff"/>
     <use xlink:href="#mc90a8a1f3b" x="92.43463" y="56.299844" style="fill: #0000ff; stroke: #0000ff"/>
     <use xlink:href="#mc90a8a1f3b" x="92.43463" y="56.451614" style="fill: #0000ff; stroke: #0000ff"/>
     <use xlink:href="#mc90a8a1f3b" x="92.586399" y="56.451614" style="fill: #0000ff; stroke: #0000ff"/>
     <use xlink:href="#mc90a8a1f3b" x="92.738168" y="56.451614" style="fill: #0000ff; stroke: #0000ff"/>
     <use xlink:href="#mc90a8a1f3b" x="92.889937" y="56.451614" style="fill: #0000ff; stroke: #0000ff"/>
     <use xlink:href="#mc90a8a1f3b" x="93.041706" y="56.451614" style="fill: #0000ff; stroke: #0000ff"/>
     <use xlink:href="#mc90a8a1f3b" x="93.193476" y="56.451614" style="fill: #0000ff; stroke: #0000ff"/>
     <use xlink:href="#mc90a8a1f3b" x="93.345245" y="56.451614" style="fill: #0000ff; stroke: #0000ff"/>
     <use xlink:href="#mc90a8a1f3b" x="93.497014" y="56.451614" style="fill: #0000ff; stroke: #0000ff"/>
     <use xlink:href="#mc90a8a1f3b" x="93.648783" y="56.451614" style="fill: #0000ff; stroke: #0000ff"/>
     <use xlink:href="#mc90a8a1f3b" x="93.800552" y="56.451614" style="fill: #0000ff; stroke: #0000ff"/>
     <use xlink:href="#mc90a8a1f3b" x="93.952321" y="56.451614" style="fill: #0000ff; stroke: #0000ff"/>
     <use xlink:href="#mc90a8a1f3b" x="94.10409" y="56.451614" style="fill: #0000ff; stroke: #0000ff"/>
     <use xlink:href="#mc90a8a1f3b" x="94.255859" y="56.451614" style="fill: #0000ff; stroke: #0000ff"/>
     <use xlink:href="#mc90a8a1f3b" x="94.407629" y="56.451614" style="fill: #0000ff; stroke: #0000ff"/>
     <use xlink:href="#mc90a8a1f3b" x="94.559398" y="56.451614" style="fill: #0000ff; stroke: #0000ff"/>
     <use xlink:href="#mc90a8a1f3b" x="94.711167" y="56.451614" style="fill: #0000ff; stroke: #0000ff"/>
     <use xlink:href="#mc90a8a1f3b" x="94.862936" y="56.451614" style="fill: #0000ff; stroke: #0000ff"/>
     <use xlink:href="#mc90a8a1f3b" x="95.014705" y="56.451614" style="fill: #0000ff; stroke: #0000ff"/>
     <use xlink:href="#mc90a8a1f3b" x="95.166474" y="56.451614" style="fill: #0000ff; stroke: #0000ff"/>
     <use xlink:href="#mc90a8a1f3b" x="95.318243" y="56.451614" style="fill: #0000ff; stroke: #0000ff"/>
     <use xlink:href="#mc90a8a1f3b" x="95.318243" y="56.299844" style="fill: #0000ff; stroke: #0000ff"/>
     <use xlink:href="#mc90a8a1f3b" x="95.318243" y="56.148075" style="fill: #0000ff; stroke: #0000ff"/>
     <use xlink:href="#mc90a8a1f3b" x="95.318243" y="55.996306" style="fill: #0000ff; stroke: #0000ff"/>
     <use xlink:href="#mc90a8a1f3b" x="95.318243" y="55.844537" style="fill: #0000ff; stroke: #0000ff"/>
     <use xlink:href="#mc90a8a1f3b" x="95.318243" y="55.692768" style="fill: #0000ff; stroke: #0000ff"/>
     <use xlink:href="#mc90a8a1f3b" x="95.318243" y="55.540999" style="fill: #0000ff; stroke: #0000ff"/>
     <use xlink:href="#mc90a8a1f3b" x="95.318243" y="55.38923" style="fill: #0000ff; stroke: #0000ff"/>
     <use xlink:href="#mc90a8a1f3b" x="95.318243" y="55.23746" style="fill: #0000ff; stroke: #0000ff"/>
     <use xlink:href="#mc90a8a1f3b" x="95.318243" y="55.085691" style="fill: #0000ff; stroke: #0000ff"/>
     <use xlink:href="#mc90a8a1f3b" x="95.318243" y="54.933922" style="fill: #0000ff; stroke: #0000ff"/>
     <use xlink:href="#mc90a8a1f3b" x="95.318243" y="54.782153" style="fill: #0000ff; stroke: #0000ff"/>
     <use xlink:href="#mc90a8a1f3b" x="95.318243" y="54.630384" style="fill: #0000ff; stroke: #0000ff"/>
     <use xlink:href="#mc90a8a1f3b" x="95.318243" y="54.478615" style="fill: #0000ff; stroke: #0000ff"/>
     <use xlink:href="#mc90a8a1f3b" x="95.318243" y="54.326846" style="fill: #0000ff; stroke: #0000ff"/>
     <use xlink:href="#mc90a8a1f3b" x="95.318243" y="54.175077" style="fill: #0000ff; stroke: #0000ff"/>
     <use xlink:href="#mc90a8a1f3b" x="95.318243" y="54.023307" style="fill: #0000ff; stroke: #0000ff"/>
     <use xlink:href="#mc90a8a1f3b" x="95.318243" y="53.871538" style="fill: #0000ff; stroke: #0000ff"/>
     <use xlink:href="#mc90a8a1f3b" x="95.318243" y="53.719769" style="fill: #0000ff; stroke: #0000ff"/>
     <use xlink:href="#mc90a8a1f3b" x="95.318243" y="53.568" style="fill: #0000ff; stroke: #0000ff"/>
     <use xlink:href="#mc90a8a1f3b" x="95.166474" y="53.568" style="fill: #0000ff; stroke: #0000ff"/>
     <use xlink:href="#mc90a8a1f3b" x="95.014705" y="53.568" style="fill: #0000ff; stroke: #0000ff"/>
     <use xlink:href="#mc90a8a1f3b" x="94.862936" y="53.568" style="fill: #0000ff; stroke: #0000ff"/>
     <use xlink:href="#mc90a8a1f3b" x="94.711167" y="53.568" style="fill: #0000ff; stroke: #0000ff"/>
     <use xlink:href="#mc90a8a1f3b" x="94.559398" y="53.568" style="fill: #0000ff; stroke: #0000ff"/>
     <use xlink:href="#mc90a8a1f3b" x="94.407629" y="53.568" style="fill: #0000ff; stroke: #0000ff"/>
     <use xlink:href="#mc90a8a1f3b" x="94.255859" y="53.568" style="fill: #0000ff; stroke: #0000ff"/>
     <use xlink:href="#mc90a8a1f3b" x="94.10409" y="53.568" style="fill: #0000ff; stroke: #0000ff"/>
     <use xlink:href="#mc90a8a1f3b" x="93.952321" y="53.568" style="fill: #0000ff; stroke: #0000ff"/>
     <use xlink:href="#mc90a8a1f3b" x="93.800552" y="53.568" style="fill: #0000ff; stroke: #0000ff"/>
     <use xlink:href="#mc90a8a1f3b" x="93.648783" y="53.568" style="fill: #0000ff; stroke: #0000ff"/>
     <use xlink:href="#mc90a8a1f3b" x="93.497014" y="53.568" style="fill: #0000ff; stroke: #0000ff"/>
     <use xlink:href="#mc90a8a1f3b" x="93.345245" y="53.568" style="fill: #0000ff; stroke: #0000ff"/>
     <use xlink:href="#mc90a8a1f3b" x="93.193476" y="53.568" style="fill: #0000ff; stroke: #0000ff"/>
     <use xlink:href="#mc90a8a1f3b" x="93.041706" y="53.568" style="fill: #0000ff; stroke: #0000ff"/>
     <use xlink:href="#mc90a8a1f3b" x="92.889937" y="53.568" style="fill: #0000ff; stroke: #0000ff"/>
     <use xlink:href="#mc90a8a1f3b" x="92.738168" y="53.568" style="fill: #0000ff; stroke: #0000ff"/>
     <use xlink:href="#mc90a8a1f3b" x="92.586399" y="53.568" style="fill: #0000ff; stroke: #0000ff"/>
    </g>
   </g>
   <g id="patch_3">
    <path d="M 57.6 307.584 
L 57.6 41.472 
" style="fill: none; stroke: #000000; stroke-width: 0.8; stroke-linejoin: miter; stroke-linecap: square"/>
   </g>
   <g id="patch_4">
    <path d="M 414.72 307.584 
L 414.72 41.472 
" style="fill: none; stroke: #000000; stroke-width: 0.8; stroke-linejoin: miter; stroke-linecap: square"/>
   </g>
   <g id="patch_5">
    <path d="M 57.6 307.584 
L 414.72 307.584 
" style="fill: none; stroke: #000000; stroke-width: 0.8; stroke-linejoin: miter; stroke-linecap: square"/>
   </g>
   <g id="patch_6">
    <path d="M 57.6 41.472 
L 414.72 41.472 
" style="fill: none; stroke: #000000; stroke-width: 0.8; stroke-linejoin: miter; stroke-linecap: square"/>
   </g>
  </g>
 </g>
 <defs>
  <clipPath id="pc3e87e1317">
   <rect x="57.6" y="41.472" width="357.12" height="266.112"/>
  </clipPath>
 </defs>
</svg>
